<!-- <svg xmlns="http://www.w3.org/2000/svg" width="190" height="40" viewBox="0 0190 40"><g fill="none" fill-rule="evenodd"><path fill="#FFF" fill-rule="nonzero" d="M56 30.7038 56 10.3402 64.4915 10.3402C66.0161 10.3402 67.2921 10.5556 68.3196 10.9865 69.3537 11.4174 70.1293 12.0206 70.6463 12.7962 71.17 13.5717 71.4318 14.4699 71.4318 15.4908 71.4318 16.2663 71.2694 16.959 70.9446 17.5689 70.6198 18.1721 70.1723 18.6726 69.6023 19.0703 69.0322 19.468 68.3726 19.7464 67.6236 19.9055L67.6236 20.1044C68.4455 20.1442 69.2045 20.3662 69.9006 20.7706 70.6032 21.175 71.1667 21.7384 71.5909 22.4609 72.0152 23.1768 72.2273 24.0253 72.2273 25.0064 72.2273 26.1001 71.9489 27.0779 71.392 27.9396 70.8352 28.7947 70.0298 29.4709 68.9759 29.968 67.9219 30.4586 66.6425 30.7038 65.1378 30.7038L56 30.7038ZM60.9219 26.7365 63.9645 26.7365C65.0317 26.7365 65.8172 26.5343 66.321 26.13 66.8314 25.7256 67.0866 25.1622 67.0866 24.4396 67.0866 23.916 66.964 23.4652 66.7188 23.0874 66.4735 22.7029 66.1255 22.4079 65.6747 22.2024 65.224 21.9903 64.6837 21.8842 64.054 21.8842L60.9219 21.8842 60.9219 26.7365ZM60.9219 18.7124 63.6463 18.7124C64.1832 18.7124 64.6605 18.6229 65.0781 18.4439 65.4957 18.2649 65.8205 18.0064 66.0526 17.6683 66.2912 17.3303 66.4105 16.9226 66.4105 16.4453 66.4105 15.7625 66.1686 15.2256 65.6847 14.8345 65.2008 14.4434 64.5478 14.2479 63.7259 14.2479L60.9219 14.2479 60.9219 18.7124ZM73.4737 30.7038 73.4737 15.4311 78.1968 15.4311 78.1968 18.2152 78.3559 18.2152C78.6343 17.2076 79.0883 16.4586 79.7181 15.968 80.3478 15.4709 81.0803 15.2223 81.9155 15.2223 82.1409 15.2223 82.3729 15.2389 82.6115 15.272 82.8502 15.2985 83.0722 15.3416 83.2777 15.4013L83.2777 19.6271C83.0457 19.5476 82.7408 19.4846 82.363 19.4382 81.9917 19.3918 81.6603 19.3686 81.3686 19.3686 80.7919 19.3686 80.2716 19.4979 79.8076 19.7564 79.3502 20.0083 78.9889 20.3629 78.7237 20.8203 78.4652 21.2711 78.336 21.8014 78.336 22.4112L78.336 30.7038 73.4737 30.7038ZM87.8701 30.9624C86.8957 30.9624 86.0306 30.8 85.2749 30.4751 84.5259 30.1437 83.9326 29.6465 83.4951 28.9837 83.0642 28.3142 82.8488 27.4756 82.8488 26.468 82.8488 25.6196 82.9979 24.9036 83.2962 24.3203 83.5945 23.737 84.0055 23.263 84.5292 22.8984 85.0529 22.5339 85.6561 22.2588 86.3388 22.0732 87.0216 21.8809 87.7508 21.7517 88.5263 21.6854 89.3947 21.6058 90.094 21.523 90.6243 21.4368 91.1546 21.344 91.5391 21.2147 91.7778 21.049 92.023 20.8767 92.1457 20.6347 92.1457 20.3232L92.1457 20.2734C92.1457 19.763 91.97 19.3686 91.6187 19.0902 91.2673 18.8118 90.7934 18.6726 90.1968 18.6726 89.5538 18.6726 89.0368 18.8118 88.6457 19.0902 88.2546 19.3686 88.006 19.7531 87.8999 20.2436L83.4155 20.0845C83.5481 19.1565 83.8895 18.3279 84.4397 17.5987 84.9965 16.8629 85.7588 16.2862 86.7266 15.8686 87.7011 15.4444 88.871 15.2322 90.2366 15.2322 91.211 15.2322 92.1092 15.3482 92.9312 15.5803 93.7531 15.8056 94.469 16.1371 95.0789 16.5746 95.6887 17.0054 96.159 17.5357 96.491 18.1655 96.829 18.7952 96.998 19.5144 96.998 20.3232L96.998 30.7038 92.4241 30.7038 92.4241 28.576 92.3047 28.576C92.033 29.093 91.685 29.5305 91.2607 29.8885 90.8431 30.2465 90.3493 30.5149 89.7792 30.6939 89.2157 30.8729 88.5794 30.9624 87.8701 30.9624ZM89.3715 27.7805C89.8952 27.7805 90.3658 27.6745 90.7834 27.4624 91.2077 27.2502 91.5457 26.9586 91.7976 26.5874 92.0495 26.2095 92.1755 25.772 92.1755 25.2749L92.1755 23.8232C92.0363 23.8961 91.8672 23.9624 91.6684 24.022 91.4761 24.0817 91.264 24.138 91.032 24.1911 90.8 24.2441 90.5614 24.2905 90.3161 24.3303 90.0708 24.37 89.8355 24.4065 89.6101 24.4396 89.1528 24.5125 88.7617 24.6252 88.4368 24.7777 88.1187 24.9302 87.8734 25.129 87.7011 25.3743 87.5353 25.6129 87.4525 25.898 87.4525 26.2294 87.4525 26.7332 87.6315 27.1177 87.9894 27.3828 88.354 27.648 88.8147 27.7805 89.3715 27.7805ZM98.851 30.7038 98.851 15.4311 103.713 15.4311 103.713 30.7038 98.851 30.7038ZM101.287 13.6513C100.604 13.6513 100.018 13.4259 99.527 12.9751 99.037 12.5178 98.791 11.9676 98.791 11.3246 98.791 10.6882 99.037 10.1447 99.527 9.6939 100.018 9.2365 100.604 9.0078 101.287 9.0078 101.976 9.0078 102.563 9.2365 103.047 9.6939 103.537 10.1447 103.783 10.6882 103.783 11.3246 103.783 11.9676 103.537 12.5178 103.047 12.9751 102.563 13.4259 101.976 13.6513 101.287 13.6513ZM110.55 21.9936 110.55 30.7038 105.688 30.7038 105.688 15.4311 110.312 15.4311 110.312 18.2351 110.481 18.2351C110.819 17.3004 111.395 16.5679 112.211 16.0376 113.026 15.5007 113.997 15.2322 115.124 15.2322 116.198 15.2322 117.129 15.4742 117.918 15.9581 118.714 16.4354 119.33 17.1049 119.768 17.9666 120.212 18.8217 120.43 19.8227 120.424121 20.9695L120.424121 30.7038 115.562 30.7038 115.562 21.924C115.568 21.0755 115.353 20.4126 114.915 19.9354 114.484 19.4581 113.884 19.2195 113.116 19.2195 112.605 19.2195 112.154 19.3322 111.763 19.5575 111.379 19.7763 111.08 20.0911 110.868 20.5021 110.663 20.9131 110.557 21.4103 110.55 21.9936Z"/><polygon fill="#FFF" fill-rule="nonzero" points="125.168 30.704 121.19 15.431 126.073 15.431 128.131 25.215 128.26 25.215 130.467 15.431 135.23 15.431 137.497 25.146 137.627 25.146 139.625 15.431 144.507 15.431 140.52 30.704 135.32 30.704 132.933 21.805 132.764 21.805 130.378 30.704"/><path fill="#FFF" fill-rule="nonzero" d="M149.644,30.9624 C148.67,30.9624 147.805,30.8 147.049,30.4751 C146.3,30.1437 145.706,29.6465 145.269,28.9837 C144.838,28.3142 144.623,27.4756 144.623,26.468 C144.623,25.6196 144.772,24.9036 145.07,24.3203 C145.368,23.737 145.779,23.263 146.303,22.8984 C146.827,22.5339 147.43,22.2588 148.113,22.0732 C148.796,21.8809 149.525,21.7517 150.3,21.6854 C151.169,21.6058 151.868,21.523 152.398,21.4368 C152.929,21.344 153.313,21.2147 153.552,21.049 C153.797,20.8767 153.92,20.6347 153.92,20.3232 L153.92,20.2734 C153.92,19.763 153.744,19.3686 153.393,19.0902 C153.041,18.8118 152.567,18.6726 151.971,18.6726 C151.328,18.6726 150.811,18.8118 150.42,19.0902 C150.028,19.3686 149.78,19.7531 149.674,20.2436 L145.189,20.0845 C145.322,19.1565 145.663,18.3279 146.214,17.5987 C146.77,16.8629 147.533,16.2862 148.501,15.8686 C149.475,15.4444 150.645,15.2322 152.01,15.2322 C152.985,15.2322 153.883,15.3482 154.705,15.5803 C155.527,15.8056 156.243,16.1371 156.853,16.5746 C157.463,17.0054 157.933,17.5357 158.265,18.1655 C158.603,18.7952 158.772,19.5144 158.772,20.3232 L158.772,30.7038 L154.198,30.7038 L154.198,28.576 L154.079,28.576 C153.807,29.093 153.459,29.5305 153.035,29.8885 C152.617,30.2465 152.123,30.5149 151.553,30.6939 C150.99,30.8729 150.353,30.9624 149.644,30.9624 Z M151.145,27.7805 C151.669,27.7805 152.14,27.6745 152.557,27.4624 C152.982,27.2502 153.32,26.9586 153.572,26.5874 C153.823,26.2095 153.949,25.772 153.949,25.2749 L153.949,23.8232 C153.81,23.8961 153.641,23.9624 153.442,24.022 C153.25,24.0817 153.038,24.138 152.806,24.1911 C152.574,24.2441 152.335,24.2905 152.09,24.3303 C151.845,24.37 151.609,24.4065 151.384,24.4396 C150.927,24.5125 150.536,24.6252 150.211,24.7777 C149.893,24.9302 149.647,25.129 149.475,25.3743 C149.309,25.6129 149.226,25.898 149.226,26.2294 C149.226,26.7332 149.405,27.1177 149.763,27.3828 C150.128,27.648 150.589,27.7805 151.145,27.7805 Z"/><polygon fill="#FFF" fill-rule="nonzero" points="174.893 15.431 169.653 30.704 164.085 30.704 158.855 15.431 163.976 15.431 166.79 25.951 166.949 25.951 169.773 15.431"/><path fill="#FFF" fill-rule="nonzero" d="M182.285,30.9922 C180.687,30.9922 179.308,30.6773 178.148,30.0476 C176.995,29.4112 176.107,28.5064 175.484,27.3331 C174.867,26.1532 174.559,24.7512 174.559,23.1271 C174.559,21.5495 174.87,20.1707 175.493,18.9908 C176.117,17.8042 176.995,16.8828 178.128,16.2266 C179.262,15.5637 180.598,15.2322 182.136,15.2322 C183.223,15.2322 184.217,15.4013 185.118,15.7393 C186.02,16.0774 186.799,16.5779 187.455,17.2408 C188.111,17.9036 188.622,18.7223 188.986,19.6967 C189.351,20.6645 189.533,21.7749 189.533,23.0277 L189.533,24.2408 L176.259,24.2408 L176.259,21.4169 L185.009,21.4169 C185.002,20.8999 184.88,20.4392 184.641,20.0348 C184.403,19.6304 184.074,19.3156 183.657,19.0902 C183.246,18.8582 182.772,18.7422 182.235,18.7422 C181.691,18.7422 181.204,18.8648 180.773,19.1101 C180.342,19.3487 180.001,19.6768 179.749,20.0945 C179.497,20.5054 179.365,20.9728 179.351,21.4965 L179.351,24.37 C179.351,24.9931 179.474,25.54 179.719,26.0107 C179.965,26.4747 180.313,26.8359 180.763,27.0945 C181.214,27.353 181.751,27.4822 182.374,27.4822 C182.805,27.4822 183.196,27.4226 183.547,27.3033 C183.899,27.184 184.2,27.0083 184.452,26.7763 C184.704,26.5443 184.893,26.2592 185.019,25.9212 L189.484,26.0504 C189.298,27.0514 188.89,27.9231 188.261,28.6655 C187.637,29.4013 186.819,29.9747 185.805,30.3857 C184.79,30.79 183.617,30.9922 182.285,30.9922 Z"/><polygon fill="#AC6AFF" fill-rule="nonzero" points="35.213 11.501 35.206 6.288 25.586 0 25.586 4.022 31.931 8.2 31.936 11.402 28.988 13.398 26.977 11.931 26.977 9.446 23.7 7.204 23.7 11.727 18.505 14.915 18.495 23.335 14.822 25.403 12.937 23.926 12.937 21.488 15.169 19.959 15.169 19.939 15.169 16.166 11.152 18.854 8.081 16.856 5.276 18.693 9.659 21.694 9.659 23.536 6.5 25.674 3.277 23.492 3.277 16.23 8.062 12.991 8.066 9.875 14.203 13.827 19.361 10.394 16.216 8.559 14.159 9.947 9.677 6.983 14.731 4.036 19.11 6.603 19.11 2.775 14.736 .211 4.794 6.008 4.787 11.223 0 14.465 0 25.257 4.787 28.499 4.794 33.714 14.414 40 14.414 35.981 8.069 31.803 8.064 28.601 11.012 26.605 13.023 28.072 13.023 30.557 16.3 32.798 16.3 28.275 21.569 25.088 21.628 16.667 25.178 14.599 27.063 16.076 27.063 18.514 24.831 20.043 24.831 20.063 24.831 23.837 28.848 21.148 31.919 23.146 34.724 21.309 30.34 18.306 30.34 16.466 33.5 14.329 36.723 16.511 36.723 23.772 31.939 27.012 31.934 30.127 25.797 26.173 20.639 29.584 23.784 31.416 25.841 30.055 30.323 33.019 25.269 35.966 20.89 33.399 20.89 37.225 25.264 39.789 35.206 33.995 35.213 28.779 40 25.537 40 14.743"/></g></svg> -->
<svg width="187" height="40" viewBox="0 0 187 40" fill="none" xmlns="http://www.w3.org/2000/svg">
<path d="M52.6413 10.0909V29H48.6435V10.0909H52.6413ZM59.79 20.8011V29H55.8567V14.8182H59.6053V17.3203H59.7715C60.0854 16.4955 60.6117 15.843 61.3503 15.3629C62.089 14.8767 62.9846 14.6335 64.0371 14.6335C65.022 14.6335 65.8806 14.849 66.6131 15.2798C67.3456 15.7107 67.915 16.3262 68.3212 17.1264C68.7275 17.9205 68.9306 18.8684 68.9306 19.9702V29H64.9973V20.6719C65.0035 19.804 64.7819 19.1269 64.3326 18.6406C63.8832 18.1482 63.2646 17.902 62.4767 17.902C61.9474 17.902 61.4796 18.0159 61.0733 18.2436C60.6732 18.4714 60.3593 18.8037 60.1316 19.2408C59.91 19.6716 59.7961 20.1918 59.79 20.8011ZM79.5739 14.8182V17.7727H71.0334V14.8182H79.5739ZM72.9723 11.4205H76.9055V24.642C76.9055 25.0052 76.9609 25.2884 77.0717 25.4915C77.1825 25.6884 77.3364 25.8269 77.5334 25.907C77.7365 25.987 77.9704 26.027 78.2351 26.027C78.4197 26.027 78.6044 26.0116 78.7891 25.9808C78.9737 25.9439 79.1153 25.9162 79.2138 25.8977L79.8324 28.8246C79.6354 28.8861 79.3584 28.9569 79.0014 29.0369C78.6444 29.1231 78.2105 29.1754 77.6996 29.1939C76.7517 29.2308 75.9207 29.1046 75.2067 28.8153C74.4988 28.526 73.9479 28.0767 73.554 27.4673C73.16 26.858 72.9661 26.0885 72.9723 25.1591V11.4205ZM88.4467 29.277C86.9879 29.277 85.7322 28.9815 84.6797 28.3906C83.6333 27.7936 82.8269 26.9503 82.2607 25.8608C81.6944 24.7652 81.4112 23.4695 81.4112 21.9737C81.4112 20.5149 81.6944 19.2346 82.2607 18.1328C82.8269 17.031 83.6241 16.1723 84.652 15.5568C85.6861 14.9413 86.8987 14.6335 88.2898 14.6335C89.2254 14.6335 90.0964 14.7843 90.9027 15.0859C91.7152 15.3814 92.4231 15.8277 93.0263 16.4247C93.6357 17.0218 94.1096 17.7727 94.4482 18.6776C94.7867 19.5762 94.956 20.6288 94.956 21.8352V22.9155H82.9808V20.478H91.2536C91.2536 19.9117 91.1304 19.41 90.8842 18.973C90.638 18.536 90.2964 18.1944 89.8594 17.9482C89.4285 17.6958 88.9268 17.5696 88.3544 17.5696C87.7573 17.5696 87.228 17.7081 86.7663 17.9851C86.3108 18.2559 85.9538 18.6222 85.6953 19.0838C85.4368 19.5393 85.3045 20.0471 85.2983 20.6072V22.9247C85.2983 23.6264 85.4276 24.2327 85.6861 24.7436C85.9508 25.2545 86.3232 25.6484 86.8033 25.9254C87.2834 26.2024 87.8527 26.3409 88.5114 26.3409C88.9484 26.3409 89.3485 26.2794 89.7116 26.1562C90.0748 26.0331 90.3857 25.8485 90.6442 25.6023C90.9027 25.3561 91.0997 25.0545 91.2351 24.6974L94.8729 24.9375C94.6882 25.8116 94.3097 26.5748 93.7372 27.2273C93.1709 27.8736 92.4384 28.3783 91.5398 28.7415C90.6473 29.0985 89.6162 29.277 88.4467 29.277ZM101.456 10.0909V29H97.5227V10.0909H101.456ZM108.54 10.0909V29H104.607V10.0909H108.54ZM111.691 29V14.8182H115.624V29H111.691ZM113.667 12.9901C113.082 12.9901 112.58 12.7962 112.162 12.4084C111.749 12.0144 111.543 11.5436 111.543 10.9957C111.543 10.4541 111.749 9.98935 112.162 9.60156C112.58 9.20762 113.082 9.01065 113.667 9.01065C114.251 9.01065 114.75 9.20762 115.162 9.60156C115.581 9.98935 115.79 10.4541 115.79 10.9957C115.79 11.5436 115.581 12.0144 115.162 12.4084C114.75 12.7962 114.251 12.9901 113.667 12.9901ZM121.572 29L117.713 14.8182H121.692L123.89 24.3466H124.019L126.309 14.8182H130.214L132.541 24.2912H132.661L134.822 14.8182H138.792L134.942 29H130.778L128.34 20.081H128.165L125.727 29H121.572ZM144.934 29.2678C144.029 29.2678 143.223 29.1108 142.515 28.7969C141.807 28.4768 141.247 28.0059 140.835 27.3842C140.428 26.7564 140.225 25.9747 140.225 25.0391C140.225 24.2512 140.37 23.5895 140.659 23.054C140.948 22.5185 141.342 22.0876 141.841 21.7614C142.339 21.4351 142.906 21.1889 143.54 21.0227C144.18 20.8565 144.851 20.7396 145.553 20.6719C146.377 20.5857 147.042 20.5057 147.547 20.4318C148.052 20.3518 148.418 20.2348 148.646 20.081C148.873 19.9271 148.987 19.6993 148.987 19.3977V19.3423C148.987 18.7576 148.803 18.3052 148.433 17.9851C148.07 17.665 147.553 17.505 146.882 17.505C146.174 17.505 145.611 17.6619 145.192 17.9759C144.774 18.2836 144.497 18.6714 144.362 19.1392L140.724 18.8438C140.908 17.982 141.272 17.2372 141.813 16.6094C142.355 15.9754 143.054 15.4891 143.909 15.1506C144.771 14.8059 145.768 14.6335 146.901 14.6335C147.688 14.6335 148.442 14.7259 149.163 14.9105C149.889 15.0952 150.532 15.3814 151.092 15.7692C151.659 16.157 152.105 16.6555 152.431 17.2649C152.757 17.8681 152.92 18.5914 152.92 19.4347V29H149.19V27.0334H149.08C148.852 27.4766 148.547 27.8674 148.165 28.206C147.784 28.5384 147.325 28.8 146.79 28.9908C146.254 29.1754 145.636 29.2678 144.934 29.2678ZM146.06 26.5533C146.639 26.5533 147.15 26.4394 147.593 26.2116C148.036 25.9777 148.384 25.6638 148.636 25.2699C148.889 24.8759 149.015 24.4297 149.015 23.9311V22.4261C148.892 22.5062 148.723 22.58 148.507 22.6477C148.298 22.7093 148.061 22.7678 147.796 22.8232C147.531 22.8724 147.267 22.9186 147.002 22.9616C146.737 22.9986 146.497 23.0324 146.282 23.0632C145.82 23.1309 145.417 23.2386 145.072 23.3864C144.728 23.5341 144.46 23.7341 144.269 23.9865C144.078 24.2327 143.983 24.5405 143.983 24.9098C143.983 25.4453 144.177 25.8546 144.565 26.1378C144.959 26.4148 145.457 26.5533 146.06 26.5533ZM168.686 14.8182L163.728 29H159.296L154.338 14.8182H158.493L161.438 24.9652H161.586L164.522 14.8182H168.686ZM176.705 29.277C175.246 29.277 173.99 28.9815 172.938 28.3906C171.891 27.7936 171.085 26.9503 170.518 25.8608C169.952 24.7652 169.669 23.4695 169.669 21.9737C169.669 20.5149 169.952 19.2346 170.518 18.1328C171.085 17.031 171.882 16.1723 172.91 15.5568C173.944 14.9413 175.156 14.6335 176.548 14.6335C177.483 14.6335 178.354 14.7843 179.161 15.0859C179.973 15.3814 180.681 15.8277 181.284 16.4247C181.893 17.0218 182.367 17.7727 182.706 18.6776C183.045 19.5762 183.214 20.6288 183.214 21.8352V22.9155H171.239V20.478H179.511C179.511 19.9117 179.388 19.41 179.142 18.973C178.896 18.536 178.554 18.1944 178.117 17.9482C177.686 17.6958 177.185 17.5696 176.612 17.5696C176.015 17.5696 175.486 17.7081 175.024 17.9851C174.569 18.2559 174.212 18.6222 173.953 19.0838C173.695 19.5393 173.562 20.0471 173.556 20.6072V22.9247C173.556 23.6264 173.685 24.2327 173.944 24.7436C174.209 25.2545 174.581 25.6484 175.061 25.9254C175.541 26.2024 176.111 26.3409 176.769 26.3409C177.206 26.3409 177.606 26.2794 177.969 26.1562C178.333 26.0331 178.643 25.8485 178.902 25.6023C179.161 25.3561 179.357 25.0545 179.493 24.6974L183.131 24.9375C182.946 25.8116 182.567 26.5748 181.995 27.2273C181.429 27.8736 180.696 28.3783 179.798 28.7415C178.905 29.0985 177.874 29.277 176.705 29.277Z" fill="white"/>
<path d="M35.213 11.501L35.206 6.288L25.586 0V4.022L31.931 8.2L31.936 11.402L28.988 13.398L26.977 11.931V9.446L23.7 7.204V11.727L18.505 14.915L18.495 23.335L14.822 25.403L12.937 23.926V21.488L15.169 19.959V19.939V16.166L11.152 18.854L8.081 16.856L5.276 18.693L9.659 21.694V23.536L6.5 25.674L3.277 23.492V16.23L8.062 12.991L8.066 9.875L14.203 13.827L19.361 10.394L16.216 8.559L14.159 9.947L9.677 6.983L14.731 4.036L19.11 6.603V2.775L14.736 0.211L4.794 6.008L4.787 11.223L0 14.465V25.257L4.787 28.499L4.794 33.714L14.414 40V35.981L8.069 31.803L8.064 28.601L11.012 26.605L13.023 28.072V30.557L16.3 32.798V28.275L21.569 25.088L21.628 16.667L25.178 14.599L27.063 16.076V18.514L24.831 20.043V20.063V23.837L28.848 21.148L31.919 23.146L34.724 21.309L30.34 18.306V16.466L33.5 14.329L36.723 16.511V23.772L31.939 27.012L31.934 30.127L25.797 26.173L20.639 29.584L23.784 31.416L25.841 30.055L30.323 33.019L25.269 35.966L20.89 33.399V37.225L25.264 39.789L35.206 33.995L35.213 28.779L40 25.537V14.743L35.213 11.501Z" fill="#AC6AFF"/>
</svg>
